<?xml version="1.0" standalone="no"?><!DOCTYPE svg PUBLIC "-//W3C//DTD SVG 1.1//EN" "http://www.w3.org/Graphics/SVG/1.1/DTD/svg11.dtd"><svg t="1617189110293" class="icon" viewBox="0 0 1024 1024" version="1.1" xmlns="http://www.w3.org/2000/svg" p-id="2061" xmlns:xlink="http://www.w3.org/1999/xlink" width="200" height="200"><defs><style type="text/css"></style></defs><path d="M340.83 577.76l-15.37 47.3c-2.42 7.44 1.66 15.44 9.1 17.86 1.46 0.47 2.93 0.7 4.38 0.7 5.97 0 11.53-3.81 13.48-9.8l15.37-47.3c5-15.4-0.44-32.15-13.54-41.67l-177.3-128.82c-4.73-3.44-3.84-8.12-3.24-9.97 0.6-1.85 2.63-6.16 8.48-6.16h219.16c16.2 0 30.44-10.35 35.44-25.75l67.72-208.43c1.81-5.56 6.54-6.16 8.48-6.16 1.95 0 6.68 0.6 8.48 6.16l67.72 208.43c5 15.4 19.25 25.75 35.44 25.75h52.01c7.83 0 14.17-6.34 14.17-14.17s-6.35-14.17-14.17-14.17h-52.01c-3.88 0-7.29-2.48-8.48-6.17l-67.72-208.43c-5.08-15.64-19-25.75-35.44-25.75-16.45 0-30.36 10.11-35.44 25.75l-67.72 208.43a8.903 8.903 0 0 1-8.48 6.17H182.19c-16.45 0-30.36 10.11-35.44 25.75-5.08 15.64 0.23 32 13.54 41.67l177.3 128.82a8.86 8.86 0 0 1 3.24 9.96zM879.25 397.3c-5.08-15.64-18.99-25.75-35.44-25.75h-93.82c-7.83 0-14.17 6.34-14.17 14.17s6.34 14.17 14.17 14.17h93.82c5.85 0 7.88 4.31 8.48 6.16 0.6 1.85 1.49 6.54-3.24 9.97l-177.3 128.82c-13.1 9.52-18.54 26.26-13.54 41.67l67.72 208.43c1.81 5.56-1.66 8.83-3.24 9.97-1.58 1.15-5.75 3.44-10.49 0l-177.3-128.8a37.171 37.171 0 0 0-43.81 0l-177.3 128.82c-4.73 3.44-8.91 1.15-10.49 0-1.58-1.14-5.05-4.41-3.24-9.97l34.07-104.85c2.42-7.44-1.66-15.44-9.1-17.86-7.44-2.42-15.44 1.65-17.86 9.1L273.1 786.2c-5.08 15.64 0.23 32 13.54 41.67 13.31 9.67 30.5 9.67 43.81 0l177.3-128.82a8.899 8.899 0 0 1 10.49 0l177.3 128.82c6.65 4.83 14.28 7.25 21.91 7.25 7.62 0 15.25-2.42 21.9-7.25 13.31-9.67 18.62-26.02 13.54-41.67l-67.72-208.43c-1.2-3.69 0.1-7.69 3.24-9.97l177.3-128.82c13.31-9.68 18.62-26.03 13.54-41.68z" p-id="2062"></path><path d="M468.27 471.33c-5.53 5.54-5.53 14.51 0 20.04l69.05 69.05c2.77 2.77 6.4 4.15 10.02 4.15s7.25-1.38 10.02-4.15c5.53-5.54 5.53-14.51 0-20.04l-69.05-69.05c-5.53-5.53-14.5-5.53-20.04 0z" p-id="2063"></path></svg>