<?xml version="1.0" standalone="no"?><!DOCTYPE svg PUBLIC "-//W3C//DTD SVG 1.1//EN" "http://www.w3.org/Graphics/SVG/1.1/DTD/svg11.dtd"><svg t="1618652509897" class="icon" viewBox="0 0 1024 1024" version="1.1" xmlns="http://www.w3.org/2000/svg" p-id="9611" xmlns:xlink="http://www.w3.org/1999/xlink" width="18" height="18"><defs><style type="text/css"></style></defs><path d="M501.21 107.09c14.33-2.32 29.44-0.31 42.41 6.34 17.01 8.53 30.1 24.55 34.9 42.98 6.3 22.86-0.72 48.57-17.5 65.26 5.43 4.68 9.94 10.27 14.84 15.48 47.51 51.9 94.95 103.87 142.48 155.75 31.13-19.04 62.32-37.99 93.48-56.99 9.39-5.55 18.38-12.24 29.15-14.89-0.53-16.64 5.04-33.46 15.84-46.17 10.18-12.12 24.67-20.52 40.28-23.19 13.73-2.31 28.2-0.61 40.84 5.32 15.88 7.35 28.68 21.14 34.75 37.56 5.72 15.09 5.73 32.23 0.05 47.33-6.02 16.63-19.03 30.48-35.09 37.83-9.01 4.26-19 6.18-28.93 6.38-13.25 73.26-26.91 146.46-40.32 219.7-9.73 52.07-18.75 104.27-29.36 156.18-5.02 25.34-9.96 50.71-15.11 76.04-9.93 33.55-37.06 61.18-70.04 72.58-12.13 4.31-25 6.34-37.85 6.43-136.03-0.01-272.05-0.02-408.07 0-9.28 0.13-18.6-0.48-27.7-2.35-31.4-6.26-59.59-26.69-75.32-54.58-4.69-8.53-8.92-17.52-10.55-27.18-8.87-45.78-18.47-91.43-26.85-137.3-18.9-103.24-38.04-206.44-56.79-309.7-16.46-0.78-32.63-7.69-44.35-19.33-11.51-11.15-18.81-26.57-20.06-42.55-1.41-16.14 3.27-32.73 12.93-45.74 9.93-13.64 25.2-23.23 41.76-26.41 15.8-2.99 32.65-0.45 46.67 7.52 22.16 12.12 36.01 37.5 34.31 62.7 4.76 1.56 9.3 3.74 13.54 6.41 35.71 21.78 71.48 43.45 107.17 65.26 47.65-52 95.15-104.15 142.75-156.21 5.64-6.06 10.94-12.5 17.41-17.73-9.63-10.29-15.91-23.66-17.58-37.67-2.25-17.38 2.76-35.54 13.45-49.42 10.23-13.51 25.78-22.78 42.46-25.64m5.17 46.55c-9.38 2.82-16.12 12.63-14.97 22.42 0.96 8.91 8.06 16.7 16.87 18.41 10.54 2.56 22.32-4.38 25.14-14.87 2.86-9.08-1.68-19.65-9.99-24.15-5.11-2.95-11.44-3.53-17.05-1.81m-16.24 105.57c-54.47 59.49-108.83 119.09-163.29 178.6-8.62 9.73-24.86 11.71-35.29 3.7-39.96-24.39-79.99-48.67-119.96-73.05-2.59-1.78-5.62-2.74-8.76-2.87-2.03 1.98-4.15 3.88-6.34 5.71-0.08 3.61 0.1 7.25 0.77 10.81 20.22 109.94 40.39 219.89 60.6 329.82 7.61 38.07 15.03 76.18 22.72 114.23 7.22 21.81 27.02 38.71 49.53 43.01 8.85 1.87 17.94 1.22 26.93 1.33h372.96c10.29-0.13 20.59 0.25 30.88-0.21 25.82-1.51 50.04-19.67 57.99-44.38 7.68-38.24 15.19-76.51 22.79-114.76 20.22-109.78 40.4-219.56 60.61-329.34 0.67-4.47 1.24-9.11 0.22-13.56-3.59-3.53-9.57-3.06-13.54-0.42-41.47 25.26-82.91 50.56-124.4 75.78-10.19 6.15-24.42 2.67-30.99-7.16-53.83-59.15-107.94-118.06-161.86-177.13-10.55-11.65-30.99-11.79-41.57-0.11m-380.76 38.46c-10.74 2.23-18.68 13.56-16.41 24.44 1.93 12.38 16.55 20.92 28.15 15.97 3.82-3.85 7.92-7.4 12.26-10.65 4.07-7.68 2.29-17.87-3.93-23.9-5.05-5.33-12.96-7.41-20.07-5.86m795.02-0.01c-8.74 1.8-15.89 9.5-16.76 18.43-1.38 10.31 6.29 20.59 16.35 22.78 10.02 2.64 21.4-3.26 25-12.98 3.96-9.27-0.31-20.95-9.06-25.79-4.63-2.77-10.29-3.51-15.53-2.44z" p-id="9612" fill="#e26a78"></path><path d="M498.55 435.75c22.78-2.67 46.41 1.32 66.8 11.91 30.21 15.22 53.01 44.31 60.43 77.33 8.33 35.17-0.88 73.98-24.46 101.42-23.01 27.65-59.45 43.35-95.36 41.06-36.17-1.64-70.81-21.61-90.6-51.9-20.53-30.46-25-70.87-11.95-105.17 10.59-28.65 33.07-52.58 60.9-65.12 10.83-4.92 22.43-8.14 34.24-9.53m0.94 46.93c-17.48 3.25-33.47 13.55-43.8 28-10.57 14.59-15.2 33.43-12.29 51.23 2.59 17.2 11.95 33.27 25.63 44.01 10.48 8.42 23.47 13.64 36.85 14.9 17.77 1.78 36.1-3.77 49.99-14.96 14.08-11.13 23.54-27.91 25.8-45.71 1.6-11.87-0.11-24.13-4.64-35.2-6.55-16.1-19.37-29.55-35.13-36.88-13.1-6.21-28.17-8.13-42.41-5.39zM343.42 753.65c4.07-1.3 8.39-0.86 12.59-0.9h317.98c4.95 0.07 10.12-0.54 14.82 1.38 6.92 2.57 12.39 8.63 14.19 15.8 2.56 9.13-1.18 19.62-9.02 24.99-4.3 3.16-9.7 4.36-14.95 4.34-109.01-0.01-218.02-0.02-327.02 0-5.3 0.09-10.7-1.15-15.05-4.27-7.09-4.77-10.98-13.75-9.73-22.19 1.04-8.82 7.69-16.64 16.19-19.15z" p-id="9613" fill="#e26a78"></path></svg>