<?xml version="1.0" standalone="no"?><!DOCTYPE svg PUBLIC "-//W3C//DTD SVG 1.1//EN" "http://www.w3.org/Graphics/SVG/1.1/DTD/svg11.dtd"><svg t="1620796434635" class="icon" viewBox="0 0 1024 1024" version="1.1" xmlns="http://www.w3.org/2000/svg" p-id="3244" xmlns:xlink="http://www.w3.org/1999/xlink" width="200" height="200"><defs><style type="text/css"></style></defs><path d="M511.62 64.98c-191.96 0-347.51 155.55-347.51 347.51s155.55 347.52 347.51 347.52 347.51-155.56 347.51-347.52S703.58 64.98 511.62 64.98z m0 66.2c155.06 0 281.32 126.26 281.32 281.32S666.68 693.82 511.62 693.82c-155.05 0-281.32-126.26-281.32-281.32 0.01-155.06 126.27-281.32 281.32-281.32" p-id="3245" fill="#515151"></path><path d="M717.65 958.42c-9.1 0-18.04-3.64-24.66-10.92a245.929 245.929 0 0 0-182.03-81.09c-68.68 0-134.71 29.13-181.04 79.93-12.24 13.57-33.26 14.4-46.83 2.15-13.57-12.41-14.4-33.27-2.15-46.83 58.92-64.37 142.65-101.44 229.86-101.44 88.03 0 172.26 37.56 231.17 102.93 12.25 13.57 11.09 34.42-2.48 46.83-5.95 5.63-13.9 8.44-21.84 8.44z m-205.7-352.48a187 187 0 0 1-138.84-61.89c-12.24-13.57-11.09-34.42 2.48-46.67s34.42-11.09 46.67 2.48a121.108 121.108 0 0 0 89.69 39.88c33.92 0 66.36-14.4 89.2-39.39 12.24-13.57 33.26-14.4 46.83-2.15 13.57 12.41 14.4 33.26 2.15 46.83a188.149 188.149 0 0 1-138.18 60.91z" p-id="3246" fill="#515151"></path></svg>